<svg width="21" height="16" viewBox="0 0 21 16" fill="none" xmlns="http://www.w3.org/2000/svg">
<path d="M20.4212 4.76785C20.5492 4.89711 20.6211 5.07172 20.6211 5.25368C20.6211 5.43565 20.5492 5.61026 20.4212 5.73952L15.8378 10.3229C15.7749 10.3904 15.699 10.4446 15.6147 10.4822C15.5303 10.5197 15.4393 10.5399 15.347 10.5416C15.2547 10.5432 15.163 10.5262 15.0774 10.4916C14.9918 10.4571 14.914 10.4056 14.8487 10.3403C14.7834 10.275 14.732 10.1973 14.6974 10.1116C14.6628 10.026 14.6458 9.93435 14.6475 9.84204C14.6491 9.74973 14.6693 9.65869 14.7069 9.57436C14.7444 9.49002 14.7986 9.41412 14.8662 9.35118L18.2762 5.94118H8.93533C8.75299 5.94118 8.57812 5.86875 8.44919 5.73982C8.32026 5.61089 8.24783 5.43602 8.24783 5.25368C8.24783 5.07135 8.32026 4.89648 8.44919 4.76755C8.57812 4.63862 8.75299 4.56618 8.93533 4.56618H18.2762L14.8662 1.15618C14.7447 1.02586 14.6786 0.853481 14.6818 0.675372C14.6849 0.497262 14.757 0.327326 14.883 0.201364C15.009 0.0754021 15.1789 0.00324964 15.357 0.00010711C15.5351 -0.00303542 15.7075 0.0630773 15.8378 0.184517L20.4212 4.76785Z" fill="black"/>
<path d="M0.199932 10.4897C0.0718546 10.3605 0 10.1859 0 10.0039C0 9.82192 0.0718546 9.64731 0.199932 9.51805L4.78327 4.93472C4.84621 4.86717 4.92211 4.81299 5.00644 4.77542C5.09077 4.73784 5.18181 4.71764 5.27412 4.71601C5.36643 4.71438 5.45812 4.73136 5.54373 4.76594C5.62934 4.80052 5.7071 4.85198 5.77238 4.91727C5.83767 4.98255 5.88913 5.06031 5.92371 5.14592C5.95829 5.23153 5.97527 5.32322 5.97364 5.41553C5.97201 5.50784 5.95181 5.59888 5.91423 5.68321C5.87666 5.76754 5.82248 5.84344 5.75493 5.90638L2.34493 9.31638H11.6858C11.8681 9.31638 12.043 9.38882 12.1719 9.51775C12.3008 9.64668 12.3733 9.82155 12.3733 10.0039C12.3733 10.1862 12.3008 10.3611 12.1719 10.49C12.043 10.619 11.8681 10.6914 11.6858 10.6914H2.34493L5.75493 14.1014C5.87637 14.2317 5.94249 14.4041 5.93934 14.5822C5.9362 14.7603 5.86405 14.9302 5.73809 15.0562C5.61212 15.1822 5.44219 15.2543 5.26408 15.2575C5.08597 15.2606 4.91359 15.1945 4.78327 15.0731L0.199932 10.4897Z" fill="black"/>
</svg>
