<svg width="30" height="30" viewBox="0 0 30 30" fill="none" xmlns="http://www.w3.org/2000/svg">
<path d="M25.3125 23.9869L23.4375 22.1119V19.6875H21.5625V22.8881L23.9869 25.3125L25.3125 23.9869Z" fill="#FF004D"/>
<path d="M22.5 29.0625C21.2021 29.0625 19.9333 28.6776 18.8541 27.9565C17.7749 27.2354 16.9337 26.2105 16.437 25.0114C15.9403 23.8122 15.8104 22.4927 16.0636 21.2197C16.3168 19.9467 16.9418 18.7774 17.8596 17.8596C18.7774 16.9418 19.9467 16.3168 21.2197 16.0636C22.4927 15.8104 23.8122 15.9403 25.0114 16.437C26.2105 16.9337 27.2354 17.7749 27.9565 18.8541C28.6776 19.9333 29.0625 21.2021 29.0625 22.5C29.06 24.2397 28.3678 25.9075 27.1376 27.1377C25.9075 28.3678 24.2397 29.06 22.5 29.0625ZM22.5 17.8125C21.5729 17.8125 20.6666 18.0874 19.8958 18.6025C19.1249 19.1176 18.5241 19.8496 18.1693 20.7062C17.8145 21.5627 17.7217 22.5052 17.9026 23.4145C18.0834 24.3238 18.5299 25.159 19.1854 25.8146C19.841 26.4701 20.6762 26.9166 21.5855 27.0974C22.4948 27.2783 23.4373 27.1855 24.2938 26.8307C25.1504 26.4759 25.8824 25.8751 26.3975 25.1042C26.9126 24.3334 27.1875 23.4271 27.1875 22.5C27.186 21.2573 26.6917 20.0658 25.8129 19.1871C24.9342 18.3083 23.7427 17.814 22.5 17.8125ZM15 26.25C12.0173 26.2468 9.1577 25.0605 7.04861 22.9514C4.93953 20.8423 3.75323 17.9827 3.75 15H1.875C1.87897 18.4798 3.26305 21.8158 5.72361 24.2764C8.18416 26.737 11.5203 28.121 15 28.125V26.25ZM11.25 7.5H6.63562C8.15269 5.80145 10.1501 4.60404 12.3632 4.0665C14.5763 3.52896 16.9004 3.67667 19.0276 4.49006C21.1548 5.30344 22.9846 6.74409 24.2744 8.62104C25.5643 10.498 26.2532 12.7226 26.25 15H28.125C28.1291 12.3907 27.3542 9.83964 25.8995 7.6735C24.4448 5.50736 22.3766 3.8248 19.9598 2.84135C17.5429 1.85789 14.8875 1.61833 12.3337 2.15334C9.77987 2.68835 7.44389 3.97357 5.625 5.84438V1.875H3.75V9.375H11.25V7.5Z" fill="#FF004D"/>
</svg>
