<svg width="32" height="32" viewBox="0 0 32 32" fill="none" xmlns="http://www.w3.org/2000/svg">
<path d="M9 4C7.67392 4 6.40215 4.52678 5.46447 5.46447C4.52678 6.40215 4 7.67392 4 9V23C4 24.3261 4.52678 25.5979 5.46447 26.5355C6.40215 27.4732 7.67392 28 9 28H23C24.3261 28 25.5979 27.4732 26.5355 26.5355C27.4732 25.5979 28 24.3261 28 23V9C28 7.67392 27.4732 6.40215 26.5355 5.46447C25.5979 4.52678 24.3261 4 23 4H9ZM6 9C6 8.20435 6.31607 7.44129 6.87868 6.87868C7.44129 6.31607 8.20435 6 9 6H23C23.7956 6 24.5587 6.31607 25.1213 6.87868C25.6839 7.44129 26 8.20435 26 9V23C26 23.7956 25.6839 24.5587 25.1213 25.1213C24.5587 25.6839 23.7956 26 23 26H9C8.20435 26 7.44129 25.6839 6.87868 25.1213C6.31607 24.5587 6 23.7956 6 23V9ZM10 10C9.73478 10 9.48043 10.1054 9.29289 10.2929C9.10536 10.4804 9 10.7348 9 11C9 11.2652 9.10536 11.5196 9.29289 11.7071C9.48043 11.8946 9.73478 12 10 12H22C22.2652 12 22.5196 11.8946 22.7071 11.7071C22.8946 11.5196 23 11.2652 23 11C23 10.7348 22.8946 10.4804 22.7071 10.2929C22.5196 10.1054 22.2652 10 22 10H10Z" fill="black"/>
</svg>
