<svg width="32" height="32" viewBox="0 0 32 32" fill="none" xmlns="http://www.w3.org/2000/svg">
<path d="M12.2079 26.6665H23.3333C25.1719 26.6665 26.6666 25.1718 26.6666 23.3332C26.6666 21.4945 25.1719 19.9998 23.3333 19.9998H13.9999C11.4266 19.9998 9.33325 17.9065 9.33325 15.3332C9.33325 12.7598 11.4266 10.6665 13.9999 10.6665H20.4813C20.9708 11.6264 21.5772 12.5221 22.2866 13.3332H13.9999C12.8973 13.3332 11.9999 14.2305 11.9999 15.3332C11.9999 16.4358 12.8973 17.3332 13.9999 17.3332H23.3333C26.6413 17.3332 29.3333 20.0252 29.3333 23.3332C29.3333 26.6412 26.6413 29.3332 23.3333 29.3332H10.5426C11.197 28.5103 11.7557 27.6157 12.2079 26.6665ZM25.3333 2.6665C27.5386 2.6665 29.3333 4.46117 29.3333 6.6665C29.3333 10.9172 25.3333 13.3332 25.3333 13.3332C25.3333 13.3332 21.3333 10.9158 21.3333 6.6665C21.3333 4.46117 23.1279 2.6665 25.3333 2.6665ZM25.3333 8.6665C25.596 8.66642 25.8561 8.61458 26.0988 8.51396C26.3415 8.41333 26.562 8.26589 26.7477 8.08005C26.9335 7.89421 27.0808 7.67361 27.1812 7.43084C27.2817 7.18808 27.3333 6.9279 27.3333 6.66517C27.3332 6.40244 27.2813 6.1423 27.1807 5.8996C27.0801 5.6569 26.9326 5.4364 26.7468 5.25068C26.561 5.06496 26.3404 4.91767 26.0976 4.81721C25.8548 4.71675 25.5946 4.66508 25.3319 4.66517C24.8013 4.66535 24.2925 4.8763 23.9174 5.25162C23.5424 5.62695 23.3317 6.13589 23.3319 6.6665C23.3321 7.19711 23.543 7.70592 23.9184 8.08099C24.2937 8.45607 24.8026 8.66668 25.3333 8.6665Z" fill="black"/>
<path d="M6.66675 18.6665C8.87208 18.6665 10.6667 20.4612 10.6667 22.6665C10.6667 26.9172 6.66675 29.3332 6.66675 29.3332C6.66675 29.3332 2.66675 26.9158 2.66675 22.6665C2.66675 20.4612 4.46141 18.6665 6.66675 18.6665ZM6.66675 24.6665C6.92948 24.6664 7.18962 24.6146 7.43232 24.514C7.67502 24.4133 7.89552 24.2659 8.08124 24.0801C8.26695 23.8942 8.41425 23.6736 8.51471 23.4308C8.61517 23.1881 8.66684 22.9279 8.66675 22.6652C8.66666 22.4024 8.61482 22.1423 8.5142 21.8996C8.41358 21.6569 8.26614 21.4364 8.08029 21.2507C7.89445 21.065 7.67385 20.9177 7.43109 20.8172C7.18832 20.7167 6.92815 20.6651 6.66542 20.6652C6.13481 20.6653 5.626 20.8763 5.25093 21.2516C4.87585 21.6269 4.66524 22.1359 4.66542 22.6665C4.66559 23.1971 4.87654 23.7059 5.25187 24.081C5.62719 24.4561 6.13614 24.6667 6.66675 24.6665Z" fill="black"/>
</svg>
