<svg width="41" height="41" viewBox="0 0 41 41" fill="none" xmlns="http://www.w3.org/2000/svg">
<path opacity="0.25" d="M10.2499 39.2918H3.41659C2.96351 39.2918 2.52899 39.1118 2.20861 38.7915C1.88824 38.4711 1.70825 38.0366 1.70825 37.5835V23.9168C1.70825 23.4638 1.88824 23.0292 2.20861 22.7089C2.52899 22.3885 2.96351 22.2085 3.41659 22.2085H10.2499C10.703 22.2085 11.1375 22.3885 11.4579 22.7089C11.7783 23.0292 11.9583 23.4638 11.9583 23.9168V37.5835C11.9583 38.0366 11.7783 38.4711 11.4579 38.7915C11.1375 39.1118 10.703 39.2918 10.2499 39.2918Z" fill="black" fill-opacity="0.11"/>
<path d="M23.9167 39.2919H17.0833C16.6303 39.2919 16.1957 39.1119 15.8754 38.7915C15.555 38.4711 15.375 38.0366 15.375 37.5835V3.41683C15.375 2.96375 15.555 2.52923 15.8754 2.20886C16.1957 1.88848 16.6303 1.7085 17.0833 1.7085H23.9167C24.3697 1.7085 24.8043 1.88848 25.1246 2.20886C25.445 2.52923 25.625 2.96375 25.625 3.41683V37.5835C25.625 38.0366 25.445 38.4711 25.1246 38.7915C24.8043 39.1119 24.3697 39.2919 23.9167 39.2919Z" fill="black" fill-opacity="0.11"/>
<path opacity="0.5" d="M37.5834 39.2917H30.7501C30.297 39.2917 29.8625 39.1117 29.5421 38.7913C29.2217 38.4709 29.0417 38.0364 29.0417 37.5833V17.0833C29.0417 16.6303 29.2217 16.1957 29.5421 15.8754C29.8625 15.555 30.297 15.375 30.7501 15.375H37.5834C38.0365 15.375 38.471 15.555 38.7914 15.8754C39.1118 16.1957 39.2917 16.6303 39.2917 17.0833V37.5833C39.2917 38.0364 39.1118 38.4709 38.7914 38.7913C38.471 39.1117 38.0365 39.2917 37.5834 39.2917Z" fill="black" fill-opacity="0.11"/>
</svg>
