<svg width="22" height="22" viewBox="0 0 22 22" fill="none" xmlns="http://www.w3.org/2000/svg">
<path d="M20 20C19.7273 20.2033 19.4293 20.379 19.106 20.527C18.066 21 16.692 21 13.943 21H8.057C5.308 21 3.934 21 2.894 20.527C2.57783 20.3842 2.27808 20.2075 2 20M17.5 9H17.491M4.5 9H4.491M1 9C1 5.463 1 3.694 2.053 2.513C2.22167 2.32367 2.40633 2.14967 2.607 1.991C3.862 1 5.741 1 9.5 1H12.5C16.259 1 18.138 1 19.392 1.99C19.5933 2.15 19.7783 2.32433 19.947 2.513C21 3.693 21 5.463 21 9C21 12.537 21 14.306 19.947 15.487C19.7774 15.6767 19.5917 15.8514 19.392 16.009C18.138 17 16.26 17 12.5 17H9.5C5.741 17 3.862 17 2.607 16.01C2.40756 15.852 2.2222 15.677 2.053 15.487C1 14.307 1 12.537 1 9Z" stroke="white" stroke-width="1.5" stroke-linecap="round" stroke-linejoin="round"/>
<path d="M13.551 9C13.551 9.66304 13.2876 10.2989 12.8188 10.7678C12.35 11.2366 11.7141 11.5 11.051 11.5C10.388 11.5 9.7521 11.2366 9.28326 10.7678C8.81442 10.2989 8.55103 9.66304 8.55103 9C8.55103 8.33696 8.81442 7.70107 9.28326 7.23223C9.7521 6.76339 10.388 6.5 11.051 6.5C11.7141 6.5 12.35 6.76339 12.8188 7.23223C13.2876 7.70107 13.551 8.33696 13.551 9Z" stroke="white" stroke-width="1.5" stroke-linecap="round" stroke-linejoin="round"/>
</svg>
