<svg width="18" height="17" viewBox="0 0 18 17" fill="none" xmlns="http://www.w3.org/2000/svg">
<g clip-path="url(#clip0_40_2179)">
<path d="M12.0385 12.018C11.9339 11.9501 11.8066 11.9264 11.6845 11.9521C11.5624 11.9778 11.4554 12.0507 11.3869 12.155C10.721 13.175 9.49799 14.4264 8.40715 14.8467C7.31632 15.2669 6.4616 15.1158 6.1216 14.8467C5.97521 14.7192 5.59271 14.3744 5.91854 13.1986C6.13576 12.4147 7.48632 8.72193 7.80743 7.82471L6.77799 7.95693C6.45215 8.83526 5.22437 12.1314 5.00243 12.953C4.68132 14.1289 4.84187 14.9836 5.51715 15.5786C5.98913 15.9093 6.55623 16.0768 7.13215 16.0555C7.69106 16.0478 8.2436 15.9357 8.76132 15.725C10.0788 15.2103 11.4624 13.7794 12.1897 12.6697C12.2226 12.617 12.2449 12.5584 12.2551 12.4971C12.2654 12.4358 12.2634 12.373 12.2494 12.3125C12.2353 12.252 12.2095 12.1948 12.1733 12.1443C12.1371 12.0937 12.0913 12.0508 12.0385 12.018Z" fill="#666666"/>
<path d="M9.16272 5.19446C9.583 5.19446 9.99385 5.06983 10.3433 4.83633C10.6928 4.60283 10.9651 4.27095 11.126 3.88266C11.2868 3.49437 11.3289 3.0671 11.2469 2.65489C11.1649 2.24268 10.9625 1.86404 10.6653 1.56686C10.3681 1.26967 9.9895 1.06728 9.57729 0.98529C9.16508 0.903297 8.73781 0.945379 8.34952 1.10621C7.96122 1.26705 7.62934 1.53942 7.39585 1.88887C7.16235 2.23833 7.03772 2.64917 7.03772 3.06946C7.03772 3.63304 7.2616 4.17355 7.66012 4.57206C8.05863 4.97058 8.59913 5.19446 9.16272 5.19446ZM9.16272 1.8889C9.39621 1.8889 9.62446 1.95814 9.8186 2.08786C10.0127 2.21758 10.1641 2.40196 10.2534 2.61768C10.3428 2.8334 10.3661 3.07077 10.3206 3.29977C10.275 3.52878 10.1626 3.73913 9.9975 3.90424C9.83239 4.06934 9.62204 4.18178 9.39303 4.22733C9.16403 4.27288 8.92666 4.2495 8.71094 4.16015C8.49522 4.0708 8.31085 3.91948 8.18112 3.72534C8.0514 3.5312 7.98216 3.30295 7.98216 3.06946C7.98216 2.75636 8.10654 2.45608 8.32794 2.23468C8.54934 2.01328 8.84962 1.8889 9.16272 1.8889Z" fill="#666666"/>
<path d="M5.62576 7.08332C5.65409 7.08332 8.58659 6.6961 9.27604 6.6111C9.58298 6.56388 9.81437 6.6111 9.88993 6.68193C9.96548 6.75277 9.98909 7.05971 9.85687 7.47527C9.56882 8.3536 8.11437 12.6697 7.68937 13.9494C7.8971 13.9068 8.10088 13.8468 8.29854 13.77C8.4876 13.6918 8.66934 13.597 8.84159 13.4867C9.42243 11.8055 10.5085 8.54721 10.7541 7.8011C10.9996 7.05499 10.9383 6.48832 10.6124 6.1011C10.4265 5.91264 10.1939 5.77701 9.93829 5.70814C9.6827 5.63926 9.41339 5.63961 9.15798 5.70916C8.4827 5.77999 5.63048 6.15305 5.5077 6.18138C5.38246 6.19766 5.26882 6.26303 5.19177 6.3631C5.11473 6.46317 5.08059 6.58975 5.09687 6.71499C5.11315 6.84023 5.17852 6.95387 5.27859 7.03092C5.37866 7.10797 5.50524 7.1421 5.63048 7.12582L5.62576 7.08332Z" fill="#666666"/>
</g>
<defs>
<clipPath id="clip0_40_2179">
<rect width="17" height="17" fill="white" transform="translate(0.0488281)"/>
</clipPath>
</defs>
</svg>
