<svg width="20" height="20" viewBox="0 0 20 20" fill="none" xmlns="http://www.w3.org/2000/svg">
<path d="M9.99998 2.70831C10.1657 2.70831 10.3247 2.77416 10.4419 2.89137C10.5591 3.00858 10.625 3.16755 10.625 3.33331C10.625 3.49907 10.5591 3.65804 10.4419 3.77525C10.3247 3.89246 10.1657 3.95831 9.99998 3.95831C8.39763 3.95831 6.86091 4.59484 5.72788 5.72788C4.59484 6.86091 3.95831 8.39763 3.95831 9.99998C3.95831 11.6023 4.59484 13.1391 5.72788 14.2721C6.86091 15.4051 8.39763 16.0416 9.99998 16.0416C10.1657 16.0416 10.3247 16.1075 10.4419 16.2247C10.5591 16.3419 10.625 16.5009 10.625 16.6666C10.625 16.8324 10.5591 16.9914 10.4419 17.1086C10.3247 17.2258 10.1657 17.2916 9.99998 17.2916C8.06611 17.2916 6.21145 16.5234 4.84399 15.156C3.47654 13.7885 2.70831 11.9338 2.70831 9.99998C2.70831 8.06611 3.47654 6.21145 4.84399 4.84399C6.21145 3.47654 8.06611 2.70831 9.99998 2.70831Z" fill="#B6B6B6"/>
<path d="M13.725 7.94164C13.6146 7.82316 13.5545 7.66646 13.5573 7.50454C13.5602 7.34262 13.6258 7.18813 13.7403 7.07362C13.8548 6.95911 14.0093 6.89352 14.1712 6.89066C14.3331 6.8878 14.4898 6.94791 14.6083 7.05831L17.1083 9.55831C17.2254 9.6755 17.2911 9.83435 17.2911 9.99997C17.2911 10.1656 17.2254 10.3245 17.1083 10.4416L14.6083 12.9416C14.5511 13.003 14.4821 13.0523 14.4054 13.0865C14.3288 13.1206 14.246 13.139 14.1621 13.1405C14.0782 13.1419 13.9948 13.1265 13.917 13.0951C13.8392 13.0636 13.7685 13.0169 13.7091 12.9575C13.6498 12.8982 13.603 12.8275 13.5715 12.7496C13.5401 12.6718 13.5247 12.5885 13.5262 12.5045C13.5276 12.4206 13.546 12.3379 13.5802 12.2612C13.6143 12.1845 13.6636 12.1155 13.725 12.0583L15.1583 10.625H8.33331C8.16755 10.625 8.00858 10.5591 7.89137 10.4419C7.77416 10.3247 7.70831 10.1657 7.70831 9.99997C7.70831 9.83421 7.77416 9.67524 7.89137 9.55803C8.00858 9.44082 8.16755 9.37497 8.33331 9.37497H15.1583L13.725 7.94164Z" fill="#B6B6B6"/>
</svg>
