<svg width="20" height="12" viewBox="0 0 20 12" fill="none" xmlns="http://www.w3.org/2000/svg">
<path fill-rule="evenodd" clip-rule="evenodd" d="M4.50002 9C5.32844 9 6.00002 9.67158 6.00002 10.5C6.00002 11.3284 5.32844 12 4.50002 12C3.67159 12 3.00002 11.3284 3.00002 10.5C3.00002 9.67158 3.67159 9 4.50002 9ZM16.5 9C17.3284 9 18 9.67158 18 10.5C18 11.3284 17.3284 12 16.5 12C15.6716 12 15 11.3284 15 10.5C15 9.67158 15.6716 9 16.5 9ZM12 0V6.99998H13V0.999985H18L20 5.00002V9.99998H18.95C18.7183 8.85886 17.7094 8.00002 16.5 8.00002C15.2905 8.00002 14.2816 8.85886 14.05 9.99998H6.94998C6.71837 8.85886 5.70953 8.00002 4.50002 8.00002C3.2905 8.00002 2.28166 8.85886 2.05005 9.99998H1.52588e-05V0H12ZM17 3H15V5.00002H18L17 3Z" fill="black"/>
</svg>
