<svg width="24" height="24" viewBox="0 0 24 24" fill="none" xmlns="http://www.w3.org/2000/svg">
<path fill-rule="evenodd" clip-rule="evenodd" d="M6.50002 16C7.32844 16 8.00002 16.6716 8.00002 17.5C8.00002 18.3284 7.32844 19 6.50002 19C5.67159 19 5.00002 18.3284 5.00002 17.5C5.00002 16.6716 5.67159 16 6.50002 16ZM18.5 16C19.3284 16 20 16.6716 20 17.5C20 18.3284 19.3284 19 18.5 19C17.6716 19 17 18.3284 17 17.5C17 16.6716 17.6716 16 18.5 16ZM14 7V14H15V7.99998H20L22 12V17H20.95C20.7183 15.8589 19.7094 15 18.5 15C17.2905 15 16.2816 15.8589 16.05 17H8.94998C8.71837 15.8589 7.70953 15 6.50002 15C5.2905 15 4.28166 15.8589 4.05005 17H2.00002V7H14ZM19 10H17V12H20L19 10Z" fill="black"/>
</svg>
