<svg width="24" height="24" viewBox="0 0 24 24" fill="none" xmlns="http://www.w3.org/2000/svg">
<g clip-path="url(#clip0_1156_2930)">
<path d="M10.2883 3.69099L9.12 5.28027H6.39167C6.72816 6.24027 7.82976 7.14555 9.36816 6.84507C9.82415 6.81435 11.3626 6.57003 12 6.72027C12.8486 6.92379 12.4949 6.92475 14.0165 8.14587L21.6 14.4003C22.0646 14.8107 22.6589 14.6427 23.0702 14.179C23.4816 13.7143 23.5046 12.8907 23.04 12.4803L13.44 4.80027C12.839 4.31787 12.6874 3.64971 12.48 2.88027C12.0768 1.55787 10.5941 0.49707 9.13871 0.49707C7.96607 0.49707 6.70415 1.51131 6.24 2.40027H9.12L10.2883 3.69099ZM16.8739 15.3603L13.9066 10.2099C13.7894 9.99627 13.4933 9.60027 13.2499 9.60027H4.99008C4.74672 9.60027 4.45056 9.99627 4.33296 10.2099L1.44 15.3603H1.36608C0.878876 15.3603 0.479996 15.5374 0.479996 16.0251V20.4555C0.479996 20.9431 0.878876 21.1203 1.36608 21.1203H2.4V22.6707C2.4 23.4022 2.85024 24.0003 3.58128 24.0003H4.02432C4.75584 24.0003 5.28 23.4022 5.28 22.6707V21.1203H12.96V22.6707C12.96 23.4017 13.4842 24.0003 14.2152 24.0003H14.6582C15.3898 24.0003 15.84 23.4022 15.84 22.6707V21.1203H16.8739C17.3611 21.1203 17.76 20.9431 17.76 20.4555V16.0251C17.76 15.5374 17.3611 15.3603 16.8739 15.3603ZM2.91696 18.6833C2.76956 18.6864 2.62304 18.66 2.48597 18.6057C2.34891 18.5514 2.22405 18.4703 2.11873 18.3672C2.01341 18.264 1.92973 18.1409 1.87261 18.005C1.81548 17.8691 1.78606 17.7231 1.78606 17.5757C1.78606 17.4283 1.81548 17.2823 1.87261 17.1464C1.92973 17.0105 2.01341 16.8874 2.11873 16.7842C2.22405 16.6811 2.34891 16.6 2.48597 16.5457C2.62304 16.4914 2.76956 16.465 2.91696 16.4681C3.20672 16.4741 3.48258 16.5935 3.68537 16.8005C3.88816 17.0076 4.00174 17.2859 4.00174 17.5757C4.00174 17.8655 3.88816 18.1438 3.68537 18.3509C3.48258 18.5579 3.20672 18.6773 2.91696 18.6833ZM3.80304 15.3603L5.59872 11.6028C5.70767 11.3849 5.99664 11.0403 6.24 11.0403H12C12.2434 11.0403 12.5318 11.3849 12.6413 11.6028L14.437 15.3603H3.80304ZM15.323 18.6833C15.0292 18.6833 14.7474 18.5666 14.5397 18.3588C14.3319 18.1511 14.2152 17.8693 14.2152 17.5755C14.2152 17.2817 14.3319 16.9999 14.5397 16.7921C14.7474 16.5843 15.0292 16.4676 15.323 16.4676C15.6169 16.4676 15.8986 16.5843 16.1064 16.7921C16.3142 16.9999 16.4309 17.2817 16.4309 17.5755C16.4309 17.8693 16.3142 18.1511 16.1064 18.3588C15.8986 18.5666 15.6169 18.6833 15.323 18.6833Z" fill="black"/>
</g>
<defs>
<clipPath id="clip0_1156_2930">
<rect width="24" height="24" fill="white"/>
</clipPath>
</defs>
</svg>
