<svg width="24" height="24" viewBox="0 0 24 24" fill="none" xmlns="http://www.w3.org/2000/svg">
<path d="M8.99999 3V1H15V3H8.99999ZM9.99999 14.75L8.89999 12.55C8.81665 12.3667 8.69165 12.229 8.52499 12.137C8.35832 12.045 8.18332 11.9993 7.99999 12H3.04999C3.29999 9.75 4.27499 7.85433 5.97499 6.313C7.67499 4.77167 9.68332 4.00067 12 4C13.0333 4 14.025 4.16667 14.975 4.5C15.925 4.83333 16.8167 5.31667 17.65 5.95L19.05 4.55L20.45 5.95L19.05 7.35C19.5833 8.05 20.0083 8.78767 20.325 9.563C20.6417 10.3383 20.85 11.1507 20.95 12H16.625L14.9 8.55C14.7167 8.16667 14.4167 7.975 14 7.975C13.5833 7.975 13.2833 8.16667 13.1 8.55L9.99999 14.75ZM12 22C9.68332 22 7.67499 21.2293 5.97499 19.688C4.27499 18.1467 3.29999 16.2507 3.04999 14H7.37499L9.09999 17.45C9.28332 17.8333 9.58332 18.025 9.99999 18.025C10.4167 18.025 10.7167 17.8333 10.9 17.45L14 11.25L15.1 13.45C15.1833 13.6333 15.3083 13.771 15.475 13.863C15.6417 13.955 15.8167 14.0007 16 14H20.95C20.7 16.25 19.725 18.1457 18.025 19.687C16.325 21.2283 14.3167 21.9993 12 22Z" fill="black"/>
</svg>
