<svg width="24" height="24" viewBox="0 0 24 24" fill="none" xmlns="http://www.w3.org/2000/svg">
<path d="M6 23H3C2.45 23 1.97933 22.8043 1.588 22.413C1.19667 22.0217 1.00067 21.5507 1 21V18H3V21H6V23ZM18 23V21H21V18H23V21C23 21.55 22.8043 22.021 22.413 22.413C22.0217 22.805 21.5507 23.0007 21 23H18ZM12 18.5C10 18.5 8.18767 17.9083 6.563 16.725C4.93833 15.5417 3.75067 13.9667 3 12C3.75 10.0333 4.93767 8.45833 6.563 7.275C8.18833 6.09167 10.0007 5.5 12 5.5C13.9993 5.5 15.812 6.09167 17.438 7.275C19.064 8.45833 20.2513 10.0333 21 12C20.25 13.9667 19.0627 15.5417 17.438 16.725C15.8133 17.9083 14.0007 18.5 12 18.5ZM12 15.5C12.9667 15.5 13.7917 15.1583 14.475 14.475C15.1583 13.7917 15.5 12.9667 15.5 12C15.5 11.0333 15.1583 10.2083 14.475 9.525C13.7917 8.84167 12.9667 8.5 12 8.5C11.0333 8.5 10.2083 8.84167 9.525 9.525C8.84167 10.2083 8.5 11.0333 8.5 12C8.5 12.9667 8.84167 13.7917 9.525 14.475C10.2083 15.1583 11.0333 15.5 12 15.5ZM12 13.5C11.5833 13.5 11.2293 13.3543 10.938 13.063C10.6467 12.7717 10.5007 12.4173 10.5 12C10.4993 11.5827 10.6453 11.2287 10.938 10.938C11.2307 10.6473 11.5847 10.5013 12 10.5C12.4153 10.4987 12.7697 10.6447 13.063 10.938C13.3563 11.2313 13.502 11.5853 13.5 12C13.498 12.4147 13.3523 12.769 13.063 13.063C12.7737 13.357 12.4193 13.5027 12 13.5ZM1 6V3C1 2.45 1.196 1.97933 1.588 1.588C1.98 1.19667 2.45067 1.00067 3 1H6V3H3V6H1ZM21 6V3H18V1H21C21.55 1 22.021 1.196 22.413 1.588C22.805 1.98 23.0007 2.45067 23 3V6H21Z" fill="black"/>
</svg>
